# Blender v2.75 (sub 4) OBJ File: 'snare.blend'
# www.blender.org
o Cube.002
v 0.300000 -0.500000 -0.300000
v 0.300000 0.100000 -0.300000
v 0.300000 -0.500000 -0.400000
v 0.300000 0.100000 -0.400000
v 0.400000 -0.500000 -0.300000
v 0.400000 0.100000 -0.300000
v 0.400000 -0.500000 -0.400000
v 0.400000 0.100000 -0.400000
v -0.400000 -0.500000 -0.300000
v -0.400000 0.100000 -0.300000
v -0.400000 -0.500000 -0.400000
v -0.400000 0.100000 -0.400000
v -0.300000 -0.500000 -0.300000
v -0.300000 0.100000 -0.300000
v -0.300000 -0.500000 -0.400000
v -0.300000 0.100000 -0.400000
v -0.400000 -0.500000 0.400000
v -0.400000 0.100000 0.400000
v -0.400000 -0.500000 0.300000
v -0.400000 0.100000 0.300000
v -0.300000 -0.500000 0.400000
v -0.300000 0.100000 0.400000
v -0.300000 -0.500000 0.300000
v -0.300000 0.100000 0.300000
v 0.326807 -0.506404 0.050000
v 0.274712 -0.210961 0.050000
v 0.326807 -0.506404 -0.050000
v 0.274712 -0.210961 -0.050000
v 0.425288 -0.489039 0.050000
v 0.373193 -0.193596 0.050000
v 0.425288 -0.489039 -0.050000
v 0.373193 -0.193596 -0.050000
v -0.425288 -0.489039 0.050000
v -0.373193 -0.193596 0.050000
v -0.425288 -0.489039 -0.050000
v -0.373193 -0.193596 -0.050000
v -0.326807 -0.506404 0.050000
v -0.274712 -0.210961 0.050000
v -0.326807 -0.506404 -0.050000
v -0.274712 -0.210961 -0.050000
v -0.050000 -0.506404 -0.326807
v -0.050000 -0.210961 -0.274712
v -0.050000 -0.489039 -0.425288
v -0.050000 -0.193596 -0.373193
v 0.050000 -0.506404 -0.326807
v 0.050000 -0.210961 -0.274712
v 0.050000 -0.489039 -0.425288
v 0.050000 -0.193596 -0.373193
v -0.050000 -0.489039 0.425288
v -0.050000 -0.193596 0.373193
v -0.050000 -0.506404 0.326807
v -0.050000 -0.210961 0.274712
v 0.050000 -0.489039 0.425288
v 0.050000 -0.193596 0.373193
v 0.050000 -0.506404 0.326807
v 0.050000 -0.210961 0.274712
v 0.300000 -0.500000 0.400000
v 0.300000 -0.200000 0.400000
v 0.300000 -0.500000 0.300000
v 0.300000 -0.200000 0.300000
v 0.400000 -0.500000 0.400000
v 0.400000 -0.200000 0.400000
v 0.400000 -0.500000 0.300000
v 0.400000 -0.200000 0.300000
vt 0.012483 0.447336
vt 0.012483 0.609946
vt 0.988139 0.609946
vt 0.988139 0.447336
vt 0.608865 0.447336
vt 0.446256 0.447336
vt 0.446256 0.609946
vt 0.608865 0.609946
vt 0.011440 0.197854
vt 0.011440 0.360464
vt 0.987096 0.360464
vt 0.987096 0.197854
vt 0.607822 0.197854
vt 0.445213 0.197854
vt 0.445213 0.360464
vt 0.607822 0.360464
vt 0.824487 0.197854
vt 0.661878 0.197854
vt 0.661878 0.360464
vt 0.824487 0.360464
vt 0.503436 0.700302
vt 0.503436 0.862912
vt 0.991264 0.862912
vt 0.991264 0.700302
vt 0.500311 0.447336
vt 0.500311 0.609946
vt 0.256397 0.447336
vt 0.093788 0.447336
vt 0.093788 0.609946
vt 0.256397 0.609946
vt 0.499268 0.197854
vt 0.499268 0.360464
vt 0.255354 0.197854
vt 0.092745 0.197854
vt 0.092745 0.360464
vt 0.255354 0.360464
vt 0.611990 0.700302
vt 0.449380 0.700303
vt 0.449380 0.862912
vt 0.611990 0.862912
vt 0.828655 0.700302
vt 0.666045 0.700302
vt 0.666045 0.862912
vt 0.828655 0.862912
vn -1.000000 0.000000 0.000000
vn 0.000000 0.000000 -1.000000
vn 1.000000 0.000000 0.000000
vn 0.000000 0.000000 1.000000
vn 0.000000 -1.000000 0.000000
vn 0.000000 1.000000 0.000000
vn -0.984800 -0.173600 0.000000
vn 0.984800 0.173600 0.000000
vn 0.173600 -0.984800 0.000000
vn -0.173600 0.984800 0.000000
vn -0.984800 0.173600 0.000000
vn 0.984800 -0.173600 0.000000
vn -0.173600 -0.984800 0.000000
vn 0.173600 0.984800 0.000000
vn 0.000000 0.173600 -0.984800
vn 0.000000 -0.173600 0.984800
vn 0.000000 -0.984800 -0.173600
vn 0.000000 0.984800 0.173600
vn 0.000000 -0.173600 -0.984800
vn 0.000000 0.173600 0.984800
vn 0.000000 -0.984800 0.173600
vn 0.000000 0.984800 -0.173600
s off
f 2/1/1 4/2/1 3/3/1 1/4/1
f 4/1/2 8/2/2 7/3/2 3/4/2
f 8/2/3 6/1/3 5/4/3 7/3/3
f 6/2/4 2/1/4 1/4/4 5/3/4
f 1/5/5 3/6/5 7/7/5 5/8/5
f 6/8/6 8/7/6 4/6/6 2/5/6
f 10/1/1 12/2/1 11/3/1 9/4/1
f 12/9/2 16/10/2 15/11/2 11/12/2
f 16/2/3 14/1/3 13/4/3 15/3/3
f 14/10/4 10/9/4 9/12/4 13/11/4
f 9/13/5 11/14/5 15/15/5 13/16/5
f 14/16/6 16/15/6 12/14/6 10/13/6
f 18/9/1 20/10/1 19/11/1 17/12/1
f 20/9/2 24/10/2 23/11/2 19/12/2
f 24/10/3 22/9/3 21/12/3 23/11/3
f 22/10/4 18/9/4 17/12/4 21/11/4
f 17/17/5 19/18/5 23/19/5 21/20/5
f 22/20/6 24/19/6 20/18/6 18/17/6
f 26/21/7 28/22/7 27/23/7 25/24/7
f 28/25/2 32/26/2 31/3/2 27/4/2
f 32/22/8 30/21/8 29/24/8 31/23/8
f 30/26/4 26/25/4 25/4/4 29/3/4
f 25/27/9 27/28/9 31/29/9 29/30/9
f 30/30/10 32/29/10 28/28/10 26/27/10
f 34/21/11 36/22/11 35/23/11 33/24/11
f 36/31/2 40/32/2 39/11/2 35/12/2
f 40/22/12 38/21/12 37/24/12 39/23/12
f 38/32/4 34/31/4 33/12/4 37/11/4
f 33/33/13 35/34/13 39/35/13 37/36/13
f 38/36/14 40/35/14 36/34/14 34/33/14
f 42/25/1 44/26/1 43/3/1 41/4/1
f 44/21/15 48/22/15 47/23/15 43/24/15
f 48/26/3 46/25/3 45/4/3 47/3/3
f 46/22/16 42/21/16 41/24/16 45/23/16
f 41/37/17 43/38/17 47/39/17 45/40/17
f 46/40/18 48/39/18 44/38/18 42/37/18
f 50/31/1 52/32/1 51/11/1 49/12/1
f 52/21/19 56/22/19 55/23/19 51/24/19
f 56/32/3 54/31/3 53/12/3 55/11/3
f 54/22/20 50/21/20 49/24/20 53/23/20
f 49/41/21 51/42/21 55/43/21 53/44/21
f 54/44/22 56/43/22 52/42/22 50/41/22
f 58/31/1 60/32/1 59/11/1 57/12/1
f 60/21/2 64/22/2 63/23/2 59/24/2
f 64/32/3 62/31/3 61/12/3 63/11/3
f 62/22/4 58/21/4 57/24/4 61/23/4
f 57/41/5 59/42/5 63/43/5 61/44/5
f 62/44/6 64/43/6 60/42/6 58/41/6
