# Blender v2.78 (sub 4) OBJ File: 'Furniture.blend'
# www.blender.org
o Spinning_Wheel_Cube.001
v -0.000000 -0.034803 -0.069388
v -0.000000 -0.078381 0.428710
v -0.000000 0.463294 -0.025810
v -0.000000 0.419716 0.472288
v 0.030000 0.486840 0.112120
v -0.030000 0.486840 0.112120
v 0.030000 0.464967 0.340686
v -0.030000 0.464967 0.340686
v 0.030000 0.287880 0.486840
v -0.030000 0.287880 0.486840
v 0.030000 0.059314 0.464967
v -0.030000 0.059314 0.464967
v 0.030000 -0.086840 0.287880
v -0.030000 -0.086840 0.287880
v 0.030000 -0.064967 0.059314
v -0.030000 -0.064967 0.059314
v 0.030000 0.112120 -0.086840
v -0.030000 0.112120 -0.086840
v 0.030000 0.340686 -0.064967
v -0.030000 0.340686 -0.064967
v 0.030000 0.437233 0.127318
v 0.030000 0.419143 0.316355
v -0.030000 0.419143 0.316355
v -0.030000 0.437233 0.127318
v 0.030000 0.272682 0.437233
v -0.030000 0.272682 0.437233
v 0.030000 0.083645 0.419143
v -0.030000 0.083645 0.419143
v 0.030000 -0.037233 0.272682
v -0.030000 -0.037233 0.272682
v 0.030000 -0.019143 0.083645
v -0.030000 -0.019143 0.083645
v 0.030000 0.127318 -0.037233
v -0.030000 0.127318 -0.037233
v 0.030000 0.316355 -0.019143
v -0.030000 0.316355 -0.019143
v -0.200000 -0.133332 -0.502455
v -0.200000 -0.033713 -0.493740
v 0.200000 -0.133332 -0.502455
v 0.200000 -0.033713 -0.493740
v -0.200000 -0.220488 0.493740
v -0.200000 -0.120869 0.502455
v 0.200000 -0.220488 0.493740
v 0.200000 -0.120869 0.502455
v 0.035000 -0.103143 0.175000
v 0.035000 0.214928 0.175000
v 0.085000 -0.103143 0.175000
v 0.085000 0.214928 0.175000
v 0.035000 -0.103143 0.225000
v 0.035000 0.214928 0.225000
v 0.085000 -0.103143 0.225000
v 0.085000 0.214928 0.225000
v -0.035000 -0.103143 0.225000
v -0.035000 0.214928 0.225000
v -0.085000 -0.103143 0.225000
v -0.085000 0.214928 0.225000
v -0.035000 -0.103143 0.175000
v -0.035000 0.214928 0.175000
v -0.085000 -0.103143 0.175000
v -0.085000 0.214928 0.175000
v 0.025000 -0.130577 -0.399099
v 0.025000 -0.500000 -0.425000
v -0.025000 -0.130577 -0.399099
v -0.025000 -0.500000 -0.425000
v 0.025000 -0.130577 -0.349099
v 0.025000 -0.500000 -0.375000
v -0.025000 -0.130577 -0.349099
v -0.025000 -0.500000 -0.375000
v -0.115000 -0.184537 0.349099
v -0.115000 -0.500000 0.375000
v -0.165000 -0.184537 0.349099
v -0.165000 -0.500000 0.375000
v -0.115000 -0.184537 0.399099
v -0.115000 -0.500000 0.425000
v -0.165000 -0.184537 0.399099
v -0.165000 -0.500000 0.425000
v 0.165000 -0.184537 0.349099
v 0.165000 -0.500000 0.375000
v 0.115000 -0.184537 0.349099
v 0.115000 -0.500000 0.375000
v 0.165000 -0.184537 0.399099
v 0.165000 -0.500000 0.425000
v 0.115000 -0.184537 0.399099
v 0.115000 -0.500000 0.425000
v -0.070811 0.178456 0.216472
v 0.070811 0.178456 0.216472
v -0.070811 0.211400 0.216472
v 0.070811 0.211400 0.216472
v -0.070811 0.178456 0.183528
v 0.070811 0.178456 0.183528
v -0.070811 0.211400 0.183528
v 0.070811 0.211400 0.183528
vt 0.719817 0.734581
vt 0.968442 0.734581
vt 0.968442 0.983207
vt 0.719817 0.983207
vt 0.499813 0.572035
vt 0.624767 0.572035
vt 0.624767 0.604687
vt 0.499813 0.604687
vt 0.749721 0.572035
vt 0.749721 0.604687
vt 0.874675 0.572035
vt 0.874675 0.604687
vt 0.999629 0.572035
vt 0.999629 0.604688
vt -0.000000 0.572036
vt 0.124953 0.572036
vt 0.124953 0.604687
vt -0.000000 0.604688
vt 0.249907 0.572035
vt 0.249907 0.604687
vt 0.516719 0.604687
vt 0.516720 0.572035
vt 0.620063 0.572035
vt 0.620063 0.604687
vt 0.374860 0.572035
vt 0.374860 0.604687
vt 0.413376 0.604687
vt 0.413376 0.572035
vt 0.723407 0.572036
vt 0.723407 0.604687
vt 0.826751 0.572036
vt 0.826751 0.604687
vt 0.000000 0.604687
vt -0.000000 0.572036
vt 0.103344 0.572035
vt 0.103344 0.604687
vt 0.206688 0.572035
vt 0.206688 0.604687
vt 0.310032 0.572035
vt 0.310032 0.604687
vt 0.180540 -0.000000
vt 0.289891 0.060463
vt 0.267813 0.078063
vt 0.177373 0.028056
vt 0.034569 0.263996
vt 0.000000 0.143919
vt 0.028056 0.147086
vt 0.056647 0.246396
vt 0.108668 0.006250
vt 0.233622 0.006250
vt 0.222817 0.032335
vt 0.119473 0.032335
vt 0.263996 0.289891
vt 0.143919 0.324460
vt 0.147086 0.296403
vt 0.246396 0.267813
vt 0.321977 0.094606
vt 0.321977 0.219559
vt 0.295892 0.208754
vt 0.295892 0.105410
vt 0.108668 0.307915
vt 0.020312 0.219559
vt 0.046398 0.208754
vt 0.119473 0.281830
vt 0.233622 0.307915
vt 0.222817 0.281830
vt 0.324459 0.180540
vt 0.296403 0.177374
vt 0.060463 0.034569
vt 0.078063 0.056647
vt 0.020313 0.094606
vt 0.046398 0.105410
vt 0.417022 0.258717
vt 0.362602 0.258717
vt 0.362602 0.476396
vt 0.417022 0.476396
vt 0.441738 0.227055
vt 0.441738 0.281475
vt 0.985937 0.281475
vt 0.985937 0.227055
vt 0.355078 0.476396
vt 0.300658 0.476396
vt 0.300658 0.258717
vt 0.355078 0.258717
vt 0.985937 0.553574
vt 0.985937 0.499154
vt 0.441738 0.499155
vt 0.441738 0.553574
vt 0.985937 0.009375
vt 0.441738 0.009375
vt 0.024253 0.489644
vt 0.187513 0.489644
vt 0.187513 0.516854
vt 0.024253 0.516854
vt 0.187513 0.544064
vt 0.024253 0.544064
vt 0.024253 0.435224
vt 0.187513 0.435224
vt 0.187513 0.462434
vt 0.024253 0.462434
vt 0.214723 0.435224
vt 0.214723 0.462434
vt 0.010191 0.399019
vt 0.173451 0.399019
vt 0.173451 0.426229
vt 0.010191 0.426229
vt 0.173451 0.453439
vt 0.010191 0.453438
vt 0.010191 0.344599
vt 0.173451 0.344599
vt 0.173451 0.371809
vt 0.010191 0.371809
vt 0.200661 0.344599
vt 0.200661 0.371809
vt 0.069566 0.445894
vt 0.232826 0.445894
vt 0.232826 0.473104
vt 0.069566 0.473104
vt 0.232826 0.500314
vt 0.069566 0.500314
vt 0.069566 0.391474
vt 0.232826 0.391474
vt 0.232826 0.418684
vt 0.069566 0.418684
vt 0.260036 0.391474
vt 0.260036 0.418684
vt 0.072691 0.156831
vt 0.235951 0.156831
vt 0.235951 0.184041
vt 0.072691 0.184041
vt 0.235951 0.211251
vt 0.072691 0.211251
vt 0.072691 0.102411
vt 0.235951 0.102411
vt 0.235951 0.129621
vt 0.072691 0.129621
vt 0.263161 0.102411
vt 0.263161 0.129621
vt 0.516441 0.149019
vt 0.679701 0.149019
vt 0.679701 0.176229
vt 0.516441 0.176229
vt 0.679701 0.203439
vt 0.516441 0.203439
vt 0.516441 0.094599
vt 0.679701 0.094599
vt 0.679701 0.121809
vt 0.516441 0.121809
vt 0.706911 0.094599
vt 0.706911 0.121809
vt 0.791441 0.131831
vt 0.954701 0.131831
vt 0.954701 0.159041
vt 0.791441 0.159041
vt 0.954701 0.186251
vt 0.791441 0.186251
vt 0.791441 0.077411
vt 0.954701 0.077411
vt 0.954701 0.104621
vt 0.791441 0.104621
vn -1.0000 0.0000 -0.0000
vn 0.0000 -0.9955 -0.0953
vn -0.0000 -0.6365 -0.7713
vn 0.0000 0.0953 -0.9955
vn 0.0000 0.7713 -0.6365
vn 0.0000 0.9955 0.0953
vn -0.0000 0.6365 0.7713
vn 0.0000 -0.0953 0.9955
vn -0.0000 -0.7713 0.6365
vn 1.0000 0.0000 0.0000
vn 0.0000 0.0872 -0.9962
vn -0.0000 -0.0872 0.9962
vn 0.0000 -0.9962 -0.0872
vn -0.0000 0.9962 0.0872
vn 0.0000 0.0000 -1.0000
vn 0.0000 0.0000 1.0000
vn 0.0000 1.0000 0.0000
vn 0.0000 0.0699 -0.9976
vn 0.0000 -0.0699 0.9976
vn 0.0000 -1.0000 0.0000
vn 0.0000 -0.0818 -0.9966
vn 0.0000 0.0818 0.9966
g Spinning_Wheel_Cube.001_Spinning_wheel
s off
f 1/1/1 2/2/1 4/3/1 3/4/1
f 5/5/2 7/6/2 8/7/2 6/8/2
f 7/6/3 9/9/3 10/10/3 8/7/3
f 9/9/4 11/11/4 12/12/4 10/10/4
f 11/11/5 13/13/5 14/14/5 12/12/5
f 13/15/6 15/16/6 16/17/6 14/18/6
f 15/16/7 17/19/7 18/20/7 16/17/7
f 22/21/7 23/22/7 26/23/7 25/24/7
f 17/19/8 19/25/8 20/26/8 18/20/8
f 19/25/9 5/5/9 6/8/9 20/26/9
f 21/27/6 24/28/6 23/22/6 22/21/6
f 25/24/8 26/23/8 28/29/8 27/30/8
f 27/30/9 28/29/9 30/31/9 29/32/9
f 29/33/2 30/34/2 32/35/2 31/36/2
f 31/36/3 32/35/3 34/37/3 33/38/3
f 33/38/4 34/37/4 36/39/4 35/40/4
f 35/40/5 36/39/5 24/28/5 21/27/5
f 8/41/10 10/42/10 26/43/10 23/44/10
f 18/45/10 20/46/10 36/47/10 34/48/10
f 15/49/1 13/50/1 29/51/1 31/52/1
f 14/53/10 16/54/10 32/55/10 30/56/10
f 11/57/1 9/58/1 25/59/1 27/60/1
f 5/61/1 19/62/1 35/63/1 21/64/1
f 7/65/1 5/61/1 21/64/1 22/66/1
f 10/42/10 12/67/10 28/68/10 26/43/10
f 20/46/10 6/69/10 24/70/10 36/47/10
f 6/69/10 8/41/10 23/44/10 24/70/10
f 17/71/1 15/49/1 31/52/1 33/72/1
f 16/54/10 18/45/10 34/48/10 32/55/10
f 13/50/1 11/57/1 27/60/1 29/51/1
f 12/67/10 14/53/10 30/56/10 28/68/10
f 9/58/1 7/65/1 22/66/1 25/59/1
f 19/62/1 17/71/1 33/72/1 35/63/1
f 37/73/11 38/74/11 40/75/11 39/76/11
f 39/77/10 40/78/10 44/79/10 43/80/10
f 43/81/12 44/82/12 42/83/12 41/84/12
f 41/85/1 42/86/1 38/87/1 37/88/1
f 39/77/13 43/80/13 41/89/13 37/90/13
f 44/79/14 40/78/14 38/87/14 42/86/14
f 45/91/15 46/92/15 48/93/15 47/94/15
f 47/94/10 48/93/10 52/95/10 51/96/10
f 51/97/16 52/98/16 50/99/16 49/100/16
f 49/100/1 50/99/1 46/92/1 45/91/1
f 52/98/17 48/101/17 46/102/17 50/99/17
f 53/103/16 54/104/16 56/105/16 55/106/16
f 55/106/1 56/105/1 60/107/1 59/108/1
f 59/109/15 60/110/15 58/111/15 57/112/15
f 57/112/10 58/111/10 54/104/10 53/103/10
f 60/110/17 56/113/17 54/114/17 58/111/17
f 61/115/18 62/116/18 64/117/18 63/118/18
f 63/118/1 64/117/1 68/119/1 67/120/1
f 67/121/19 68/122/19 66/123/19 65/124/19
f 65/124/10 66/123/10 62/116/10 61/115/10
f 68/122/20 64/125/20 62/126/20 66/123/20
f 69/127/21 70/128/21 72/129/21 71/130/21
f 71/130/1 72/129/1 76/131/1 75/132/1
f 75/133/22 76/134/22 74/135/22 73/136/22
f 73/136/10 74/135/10 70/128/10 69/127/10
f 76/134/20 72/137/20 70/138/20 74/135/20
f 77/139/21 78/140/21 80/141/21 79/142/21
f 79/142/1 80/141/1 84/143/1 83/144/1
f 83/145/22 84/146/22 82/147/22 81/148/22
f 81/148/10 82/147/10 78/140/10 77/139/10
f 84/146/20 80/149/20 78/150/20 82/147/20
f 85/151/16 86/152/16 88/153/16 87/154/16
f 87/154/17 88/153/17 92/155/17 91/156/17
f 91/157/15 92/158/15 90/159/15 89/160/15
f 89/160/20 90/159/20 86/152/20 85/151/20
