# Blender v2.78 (sub 4) OBJ File: 'Furniture.blend'
# www.blender.org
o Wall_hung_cabinet_Cube.002
v -0.400000 -0.300000 0.500000
v -0.400000 0.400000 0.500000
v -0.400000 -0.300000 -0.200000
v -0.400000 0.400000 -0.200000
v 0.400000 -0.300000 0.500000
v 0.400000 0.400000 0.500000
v 0.400000 -0.300000 -0.200000
v 0.400000 0.400000 -0.200000
v -0.300000 -0.200000 -0.250000
v -0.300000 0.300000 -0.250000
v 0.300000 -0.200000 -0.250000
v 0.300000 0.300000 -0.250000
v -0.300000 0.300000 -0.150000
v -0.300000 -0.200000 -0.150000
v 0.300000 -0.200000 -0.150000
v 0.300000 0.300000 -0.150000
vt -0.728568 0.929533
vt -0.728569 0.153985
vt 0.046979 0.153985
vt 0.046979 0.929533
vt 0.933319 0.153985
vt 0.933319 0.929532
vt 1.708866 0.153985
vt 1.708867 0.929532
vt 0.960211 0.145667
vt 0.960211 0.932207
vt 0.061308 0.932207
vt 0.061308 0.145667
vt 0.933319 1.705080
vt 0.046979 1.705080
vt 0.046979 -0.621562
vt 0.933319 -0.621563
vt 0.125071 0.749953
vt 0.125070 0.125070
vt 0.874929 0.125070
vt 0.874930 0.749952
vt 0.999906 0.125070
vt 0.999906 0.749952
vt 0.874930 0.874929
vt 0.125071 0.874929
vt 0.125070 0.000094
vt 0.874929 0.000094
vt 0.000094 0.749953
vt 0.000094 0.125070
vn -1.0000 0.0000 0.0000
vn 0.0000 0.0000 -1.0000
vn 1.0000 0.0000 0.0000
vn 0.0000 0.0000 1.0000
vn 0.0000 -1.0000 0.0000
vn 0.0000 1.0000 0.0000
g Wall_hung_cabinet_Cube.002_Body
s off
f 1/1/1 2/2/1 4/3/1 3/4/1
f 3/4/2 4/3/2 8/5/2 7/6/2
f 7/6/3 8/5/3 6/7/3 5/8/3
f 5/9/4 6/10/4 2/11/4 1/12/4
f 3/4/5 7/6/5 5/13/5 1/14/5
f 8/5/6 4/3/6 2/15/6 6/16/6
g Wall_hung_cabinet_Cube.002_Button
f 9/17/2 10/18/2 12/19/2 11/20/2
f 12/19/3 16/21/3 15/22/3 11/20/3
f 11/20/5 15/23/5 14/24/5 9/17/5
f 10/18/6 13/25/6 16/26/6 12/19/6
f 9/17/1 14/27/1 13/28/1 10/18/1
