# Blender v2.74 (sub 0) OBJ File: 'chest.blend'
# www.blender.org
mtllib chest.mtl
o Cube
v 0.312250 -0.437250 0.500250
v 0.500250 -0.437250 0.500250
v 0.312250 -0.375250 0.500250
v 0.500250 -0.375250 0.500250
v 0.312250 -0.437250 0.312250
v 0.500250 -0.437250 0.312250
v 0.312250 -0.375250 0.312250
v 0.500250 -0.375250 0.312250
v 0.375000 -0.499750 0.500000
v 0.500000 -0.499750 0.500000
v 0.375000 -0.437750 0.500000
v 0.500000 -0.437750 0.500000
v 0.375000 -0.499750 0.375000
v 0.500000 -0.499750 0.375000
v 0.375000 -0.437750 0.375000
v 0.500000 -0.437750 0.375000
v -0.500000 -0.499750 0.500000
v -0.375000 -0.499750 0.500000
v -0.500000 -0.437750 0.500000
v -0.375000 -0.437750 0.500000
v -0.500000 -0.499750 0.375000
v -0.375000 -0.499750 0.375000
v -0.500000 -0.437750 0.375000
v -0.375000 -0.437750 0.375000
v -0.500250 -0.437250 0.500250
v -0.312250 -0.437250 0.500250
v -0.500250 -0.375250 0.500250
v -0.312250 -0.375250 0.500250
v -0.500250 -0.437250 0.312250
v -0.312250 -0.437250 0.312250
v -0.500250 -0.375250 0.312250
v -0.312250 -0.375250 0.312250
v -0.500250 -0.437250 -0.312250
v -0.312250 -0.437250 -0.312250
v -0.500250 -0.375250 -0.312250
v -0.312250 -0.375250 -0.312250
v -0.500250 -0.437250 -0.500250
v -0.312250 -0.437250 -0.500250
v -0.500250 -0.375250 -0.500250
v -0.312250 -0.375250 -0.500250
v -0.500000 -0.499750 -0.375000
v -0.375000 -0.499750 -0.375000
v -0.500000 -0.437750 -0.375000
v -0.375000 -0.437750 -0.375000
v -0.500000 -0.499750 -0.500000
v -0.375000 -0.499750 -0.500000
v -0.500000 -0.437750 -0.500000
v -0.375000 -0.437750 -0.500000
v 0.312250 -0.437250 -0.312250
v 0.500250 -0.437250 -0.312250
v 0.312250 -0.375250 -0.312250
v 0.500250 -0.375250 -0.312250
v 0.312250 -0.437250 -0.500250
v 0.500250 -0.437250 -0.500250
v 0.312250 -0.375250 -0.500250
v 0.500250 -0.375250 -0.500250
v 0.375000 -0.499750 -0.375000
v 0.500000 -0.499750 -0.375000
v 0.375000 -0.437750 -0.375000
v 0.500000 -0.437750 -0.375000
v 0.375000 -0.499750 -0.500000
v 0.500000 -0.499750 -0.500000
v 0.375000 -0.437750 -0.500000
v 0.500000 -0.437750 -0.500000
v -0.500000 -0.375000 -0.500000
v 0.500000 -0.375000 -0.500000
v 0.500000 -0.375000 0.500000
v -0.500000 -0.375000 0.500000
v -0.500000 0.500000 -0.000000
v -0.500000 0.000000 -0.500000
v -0.500000 0.475528 -0.154509
v -0.500000 0.404508 -0.293893
v -0.499999 0.293893 -0.404509
v -0.500000 0.154508 -0.475528
v 0.500000 0.000000 -0.500000
v 0.500000 0.500000 0.000000
v 0.500000 0.154509 -0.475528
v 0.500000 0.293893 -0.404508
v 0.500000 0.404509 -0.293892
v 0.500000 0.475528 -0.154508
v 0.500000 0.500000 0.000000
v 0.500000 0.000000 0.500000
v 0.500000 0.475528 0.154509
v 0.500000 0.404508 0.293893
v 0.500000 0.293893 0.404509
v 0.500000 0.154508 0.475528
v -0.500000 0.000000 0.500000
v -0.500000 0.500000 -0.000000
v -0.500000 0.154509 0.475528
v -0.500000 0.293893 0.404508
v -0.500000 0.404509 0.293892
v -0.500000 0.475528 0.154508
vt 0.970223 0.789757
vt 0.970223 0.813023
vt 0.914668 0.813023
vt 0.914668 0.789757
vt 0.900688 0.812548
vt 0.900688 0.789319
vt 0.984244 0.789319
vt 0.984244 0.812548
vt 0.912490 0.984174
vt 0.912490 0.900618
vt 0.983038 0.900618
vt 0.983038 0.984174
vt 0.917205 0.901389
vt 0.940435 0.901389
vt 0.940435 0.984945
vt 0.917205 0.984945
vt 0.913816 0.979487
vt 0.913816 0.895931
vt 0.984365 0.895931
vt 0.984365 0.979487
vt 0.956037 0.980257
vt 0.932770 0.980257
vt 0.932770 0.896701
vt 0.956037 0.896701
vt 0.900806 0.812652
vt 0.900806 0.789386
vt 0.984361 0.789386
vt 0.984361 0.812652
vt 0.969913 0.789529
vt 0.969913 0.812759
vt 0.914357 0.812759
vt 0.914357 0.789529
vt 0.972004 0.913889
vt 0.972004 0.969444
vt 0.925097 0.969444
vt 0.925097 0.913889
vt 0.959199 0.967188
vt 0.935970 0.967187
vt 0.935970 0.911632
vt 0.959199 0.911632
vt 0.975022 0.917035
vt 0.975022 0.972591
vt 0.928115 0.972591
vt 0.928115 0.917035
vt 0.966986 0.975694
vt 0.943720 0.975694
vt 0.943720 0.920139
vt 0.966986 0.920139
vt 0.970063 0.790089
vt 0.970063 0.813355
vt 0.914507 0.813355
vt 0.914507 0.790089
vt 0.941769 0.927278
vt 0.964999 0.927278
vt 0.964999 0.982834
vt 0.941769 0.982834
vt 0.974786 0.912348
vt 0.974786 0.967903
vt 0.927878 0.967903
vt 0.927878 0.912348
vt 0.940625 0.913194
vt 0.963855 0.913194
vt 0.963855 0.968750
vt 0.940625 0.968750
vt 0.978147 0.917729
vt 0.978147 0.973285
vt 0.931239 0.973285
vt 0.931240 0.917729
vt 0.949582 0.975021
vt 0.926316 0.975021
vt 0.926316 0.919466
vt 0.949582 0.919466
vt 0.967556 0.978820
vt 0.944290 0.978820
vt 0.944290 0.923264
vt 0.967556 0.923264
vt 0.965643 0.991195
vt 0.942413 0.991195
vt 0.942413 0.907639
vt 0.965643 0.907639
vt 0.915378 0.984250
vt 0.915378 0.900695
vt 0.985927 0.900695
vt 0.985927 0.984250
vt 0.961527 0.986507
vt 0.938298 0.986507
vt 0.938298 0.902951
vt 0.961527 0.902951
vt 0.914052 0.985813
vt 0.914052 0.902257
vt 0.984601 0.902257
vt 0.984601 0.985813
vt 0.954538 0.987966
vt 0.931272 0.987966
vt 0.931272 0.904410
vt 0.954538 0.904410
vt 0.918536 0.899723
vt 0.941802 0.899723
vt 0.941802 0.983278
vt 0.918536 0.983278
vt 0.974235 0.991195
vt 0.951006 0.991195
vt 0.951006 0.907639
vt 0.974235 0.907639
vt 0.918503 0.899875
vt 0.989052 0.899875
vt 0.989052 0.983431
vt 0.918503 0.983431
vt 0.900665 0.812880
vt 0.900665 0.789651
vt 0.984220 0.789651
vt 0.984220 0.812880
vt 0.914052 0.986480
vt 0.914052 0.902924
vt 0.984601 0.902924
vt 0.984601 0.986480
vt 0.984150 0.789352
vt 0.984150 0.812618
vt 0.900595 0.812618
vt 0.900595 0.789352
vt 0.940754 0.895139
vt 0.964020 0.895139
vt 0.964020 0.978695
vt 0.940754 0.978695
vt 0.924990 0.921028
vt 0.948219 0.921028
vt 0.948219 0.976584
vt 0.924989 0.976584
vt 0.947019 0.882183
vt 0.993926 0.882183
vt 0.993926 0.937738
vt 0.947019 0.937738
vt 0.970157 0.789701
vt 0.970157 0.812931
vt 0.914601 0.812931
vt 0.914601 0.789701
vt 0.973535 0.913889
vt 0.973535 0.969444
vt 0.926627 0.969444
vt 0.926627 0.913889
vt 0.952218 0.964757
vt 0.928952 0.964757
vt 0.928952 0.909201
vt 0.952218 0.909201
vt 0.955852 0.981820
vt 0.932622 0.981820
vt 0.932622 0.898264
vt 0.955852 0.898264
vt 0.915615 0.901438
vt 0.986163 0.901438
vt 0.986163 0.984993
vt 0.915614 0.984993
vt 0.900751 0.812462
vt 0.900751 0.789233
vt 0.984306 0.789233
vt 0.984306 0.812462
vt 0.912253 0.983355
vt 0.912253 0.899799
vt 0.982802 0.899799
vt 0.982802 0.983355
vt 0.954538 0.980973
vt 0.931272 0.980973
vt 0.931272 0.897417
vt 0.954538 0.897417
vt 0.984080 0.789541
vt 0.984080 0.812808
vt 0.900525 0.812808
vt 0.900525 0.789541
vt 0.943542 0.917882
vt 0.966772 0.917882
vt 0.966772 0.973437
vt 0.943542 0.973437
vt 0.921875 0.915451
vt 0.968783 0.915451
vt 0.968783 0.971007
vt 0.921875 0.971007
vt 0.914450 0.813180
vt 0.914450 0.789950
vt 0.970006 0.789950
vt 0.970006 0.813180
vt 0.981315 0.912326
vt 0.981315 0.967882
vt 0.934408 0.967882
vt 0.934407 0.912326
vt 0.966109 0.969444
vt 0.942843 0.969444
vt 0.942843 0.913889
vt 0.966109 0.913889
vt 0.971845 0.972569
vt 0.948579 0.972569
vt 0.948579 0.917014
vt 0.971845 0.917014
vt 0.012500 0.021875
vt 0.387758 0.021875
vt 0.387758 0.466319
vt 0.012500 0.466319
vt 0.329186 0.489977
vt 0.188464 0.489977
vt 0.130483 0.479101
vt 0.078178 0.447536
vt 0.036669 0.398374
vt 0.010018 0.336425
vt 0.000835 0.267755
vt 0.010018 0.199084
vt 0.036669 0.137136
vt 0.078178 0.087973
vt 0.130483 0.056409
vt 0.188464 0.045533
vt 0.329186 0.045533
vt 0.420874 0.983834
vt 0.420874 0.539390
vt 0.843427 0.251093
vt 0.983927 0.251093
vt 0.983927 0.748907
vt 0.843427 0.748907
vt 0.418956 0.726022
vt 0.278455 0.726022
vt 0.278455 0.281577
vt 0.418956 0.281577
vt 0.519156 0.749928
vt 0.519156 0.250072
vt 0.577137 0.250072
vt 0.577137 0.749928
vt 0.466912 0.750429
vt 0.466912 0.249571
vt 0.519217 0.249571
vt 0.519217 0.750429
vt 0.423266 0.720921
vt 0.423265 0.276476
vt 0.467035 0.276476
vt 0.467035 0.720921
vt 0.148315 0.973913
vt 0.148315 0.529469
vt 0.202031 0.529469
vt 0.202031 0.973913
vt 0.195830 0.973913
vt 0.195830 0.529469
vt 0.254234 0.529469
vt 0.254234 0.973913
vt 0.634866 0.250783
vt 0.634865 0.749217
vt 0.576885 0.749217
vt 0.576885 0.250783
vt 0.686963 0.250785
vt 0.686963 0.748925
vt 0.634658 0.748925
vt 0.634658 0.250785
vt 0.730543 0.251210
vt 0.730543 0.748915
vt 0.686773 0.748915
vt 0.686773 0.251210
vt 0.784304 0.251078
vt 0.784304 0.748922
vt 0.730588 0.748922
vt 0.730588 0.251078
vt 0.842913 0.251674
vt 0.842913 0.748556
vt 0.784509 0.748556
vt 0.784509 0.251674
vt 0.011637 0.249476
vt 0.020820 0.180805
vt 0.047471 0.118857
vt 0.088980 0.069694
vt 0.141285 0.038130
vt 0.199266 0.027254
vt 0.339988 0.027254
vt 0.339988 0.471698
vt 0.199266 0.471698
vt 0.141285 0.460822
vt 0.088980 0.429257
vt 0.047471 0.380095
vt 0.020820 0.318146
vn -1.000000 0.000000 -0.000000
vn -0.000000 0.000000 1.000000
vn 0.000000 1.000000 0.000000
vn 0.000000 0.000000 -1.000000
vn -0.000000 -1.000000 0.000000
vn 1.000000 0.000000 0.000000
vn 0.000000 0.987700 -0.156400
vn 0.000000 0.891000 -0.454000
vn 0.000000 0.707100 -0.707100
vn 0.000000 0.454000 -0.891000
vn 0.000000 0.156400 -0.987700
vn -0.000000 0.987700 0.156400
vn -0.000000 0.891000 0.454000
vn -0.000000 0.707100 0.707100
vn -0.000000 0.454000 0.891000
vn -0.000000 0.156400 0.987700
usemtl Material
s off
f 41/1/1 43/2/1 47/3/1 45/4/1
usemtl Material_Untitled
f 2/5/2 4/6/2 3/7/2 1/8/2
f 4/9/3 8/10/3 7/11/3 3/12/3
f 8/13/4 6/14/4 5/15/4 7/16/4
f 6/17/5 2/18/5 1/19/5 5/20/5
f 1/21/1 3/22/1 7/23/1 5/24/1
f 6/25/6 8/26/6 4/27/6 2/28/6
f 10/29/2 12/30/2 11/31/2 9/32/2
f 12/33/3 16/34/3 15/35/3 11/36/3
f 16/37/4 14/38/4 13/39/4 15/40/4
f 14/41/5 10/42/5 9/43/5 13/44/5
f 9/45/1 11/46/1 15/47/1 13/48/1
f 14/49/6 16/50/6 12/51/6 10/52/6
f 18/53/2 20/54/2 19/55/2 17/56/2
f 20/57/3 24/58/3 23/59/3 19/60/3
f 24/61/4 22/62/4 21/63/4 23/64/4
f 22/65/5 18/66/5 17/67/5 21/68/5
f 17/69/1 19/70/1 23/71/1 21/72/1
f 22/73/6 24/74/6 20/75/6 18/76/6
f 26/77/2 28/78/2 27/79/2 25/80/2
f 28/81/3 32/82/3 31/83/3 27/84/3
f 32/85/4 30/86/4 29/87/4 31/88/4
f 30/89/5 26/90/5 25/91/5 29/92/5
f 25/93/1 27/94/1 31/95/1 29/96/1
f 30/97/6 32/98/6 28/99/6 26/100/6
f 34/101/2 36/102/2 35/103/2 33/104/2
f 36/105/3 40/106/3 39/107/3 35/108/3
f 40/109/4 38/110/4 37/111/4 39/112/4
f 38/113/5 34/114/5 33/115/5 37/116/5
f 33/117/1 35/118/1 39/119/1 37/120/1
f 38/121/6 40/122/6 36/123/6 34/124/6
f 42/125/2 44/126/2 43/127/2 41/128/2
f 44/129/3 48/130/3 47/131/3 43/132/3
f 48/133/4 46/134/4 45/135/4 47/136/4
f 46/137/5 42/138/5 41/139/5 45/140/5
f 46/141/6 48/142/6 44/143/6 42/144/6
f 50/145/2 52/146/2 51/147/2 49/148/2
f 52/149/3 56/150/3 55/151/3 51/152/3
f 56/153/4 54/154/4 53/155/4 55/156/4
f 54/157/5 50/158/5 49/159/5 53/160/5
f 49/161/1 51/162/1 55/163/1 53/164/1
f 54/165/6 56/166/6 52/167/6 50/168/6
f 58/169/2 60/170/2 59/171/2 57/172/2
f 60/173/3 64/174/3 63/175/3 59/176/3
f 64/177/4 62/178/4 61/179/4 63/180/4
f 62/181/5 58/182/5 57/183/5 61/184/5
f 57/185/1 59/186/1 63/187/1 61/188/1
f 62/189/6 64/190/6 60/191/6 58/192/6
f 65/193/5 66/194/5 67/195/5 68/196/5
f 66/197/6 75/198/6 77/199/6 78/200/6 79/201/6 80/202/6 76/203/6 81/203/6 83/204/6 84/205/6 85/206/6 86/207/6 82/208/6 67/209/6
f 69/210/3 88/210/3 81/211/3 76/211/3
f 67/212/2 82/213/2 87/214/2 68/215/2
f 65/216/4 70/217/4 75/218/4 66/219/4
f 69/220/7 76/221/7 80/222/7 71/223/7
f 71/224/8 80/225/8 79/226/8 72/227/8
f 72/228/9 79/229/9 78/230/9 73/231/9
f 73/232/10 78/233/10 77/234/10 74/235/10
f 74/236/11 77/237/11 75/238/11 70/239/11
f 81/240/12 88/241/12 92/242/12 83/243/12
f 83/244/13 92/245/13 91/246/13 84/247/13
f 84/248/14 91/249/14 90/250/14 85/251/14
f 85/252/15 90/253/15 89/254/15 86/255/15
f 86/256/16 89/257/16 87/258/16 82/259/16
f 69/260/1 71/261/1 72/262/1 73/263/1 74/264/1 70/265/1 65/266/1 68/267/1 87/268/1 89/269/1 90/270/1 91/271/1 92/272/1 88/260/1
