# Blender v2.74 (sub 2) OBJ File: ''
# www.blender.org
mtllib survival_sleeping_bag.mtl
o Cube.002
v -0.448870 -0.500000 1.397741
v -0.231080 -0.179968 1.324487
v -0.448870 -0.500000 -0.397741
v -0.231080 -0.212580 -0.310682
v 0.448870 -0.500000 1.397741
v 0.231080 -0.179968 1.324487
v 0.448870 -0.500000 -0.397741
v 0.231080 -0.212580 -0.310682
v -0.231080 -0.177113 1.109777
v -0.231080 -0.226383 0.337781
v -0.474892 -0.500000 0.337781
v -0.474892 -0.500000 1.109777
v 0.231080 -0.226383 0.337781
v 0.231080 -0.177113 1.109777
v 0.474892 -0.500000 1.109777
v 0.474892 -0.500000 0.337781
v -0.472603 -0.376458 1.445205
v -0.438256 -0.237014 1.445205
v -0.438256 -0.237014 -0.445205
v -0.472603 -0.376458 -0.445205
v 0.438256 -0.237014 -0.445205
v 0.472603 -0.376458 -0.445205
v 0.438256 -0.237014 1.445205
v 0.472603 -0.376458 1.445205
v 0.439622 -0.309831 0.337781
v 0.500000 -0.376458 0.337781
v 0.463662 -0.237014 1.109777
v 0.500000 -0.376458 1.109777
v -0.463662 -0.237014 1.109777
v -0.500000 -0.376458 1.109777
v -0.439622 -0.309831 0.337781
v -0.500000 -0.376458 0.337781
v -0.131040 -0.176978 -0.310682
v 0.131040 -0.176978 -0.310682
v 0.269301 -0.500000 -0.449784
v -0.269301 -0.500000 -0.449784
v 0.131040 -0.167302 1.324487
v -0.131040 -0.167302 1.324487
v -0.269301 -0.500000 1.449784
v 0.269301 -0.500000 1.449784
v 0.131040 -0.177113 1.109777
v -0.131040 -0.177113 1.109777
v 0.131040 -0.206973 0.337781
v -0.131040 -0.206973 0.337781
v -0.269301 -0.500000 1.109777
v 0.269301 -0.500000 1.109777
v -0.269301 -0.500000 0.337781
v 0.269301 -0.500000 0.337781
v -0.262933 -0.237014 1.500000
v 0.262933 -0.237014 1.500000
v -0.283539 -0.376458 1.500000
v 0.283539 -0.376458 1.500000
v 0.262933 -0.237014 -0.500000
v -0.262933 -0.237014 -0.500000
v 0.283539 -0.376458 -0.500000
v -0.283539 -0.376458 -0.500000
vt 0.644634 0.296517
vt 0.646528 -0.485298
vt 0.739940 -0.437463
vt 0.738141 0.296950
vt 0.842223 0.649116
vt 0.849688 0.460028
vt 0.946772 0.483763
vt 0.939682 0.663356
vt 0.448255 -0.147622
vt 0.450150 -0.483793
vt 0.543562 -0.436736
vt 0.541762 -0.148055
vt 0.842223 -0.296210
vt 0.849688 -0.485298
vt 0.946772 -0.461563
vt 0.939682 -0.281970
vt 0.638911 0.728107
vt 1.426577 0.728107
vt 1.374527 0.862074
vt 0.638911 0.881487
vt 0.326519 0.407661
vt -0.322424 0.407661
vt -0.321854 0.333027
vt 0.326830 0.333027
vt 1.312591 0.407661
vt 1.098037 0.407661
vt 1.098037 0.333027
vt 1.312793 0.333027
vt -0.473234 0.728107
vt -0.133183 0.728107
vt -0.133183 0.881487
vt -0.421184 0.862074
vt 0.450150 1.405895
vt 0.448255 0.624079
vt 0.541762 0.623646
vt 0.543562 1.358060
vt 0.646528 1.404390
vt 0.644634 1.068218
vt 0.738141 1.068651
vt 0.739940 1.357332
vt 0.328164 0.177445
vt 1.098996 0.159510
vt 0.543562 1.069786
vt 0.599315 0.298634
vt 1.434424 0.178464
vt 0.545318 1.405895
vt 0.326830 0.677820
vt 1.098038 0.677820
vt 1.098996 0.851337
vt 0.328165 0.833402
vt 0.402937 0.621962
vt 0.347183 -0.149190
vt -0.321854 0.677820
vt -0.455986 0.832383
vt 0.348940 1.404390
vt 1.489219 0.309263
vt 0.739940 -0.275602
vt 0.747405 -0.450947
vt 1.312793 0.677820
vt 1.434424 0.832383
vt 0.348940 -0.485298
vt -0.322424 0.603186
vt -0.510781 0.701584
vt 0.739940 0.669725
vt 0.747405 0.494379
vt -0.455986 0.178464
vt 0.545318 -0.483793
vt 0.747405 1.371003
vt 0.739940 1.195657
vt 0.842223 1.216266
vt 0.849688 1.405354
vt -0.510781 0.309263
vt 0.747405 0.425677
vt 0.739940 0.250331
vt 0.842223 0.270940
vt 1.312591 0.603186
vt 1.489219 0.701584
vt -0.133183 0.172904
vt 0.638911 0.172904
vt 0.638911 0.326285
vt -0.133183 0.326285
vt -0.421184 0.192318
vt -0.473234 0.326285
vt 0.326519 0.603186
vt 1.098038 0.603186
vt 1.374527 0.192318
vt 1.426577 0.326285
vt 0.939682 0.256700
vt 0.946772 0.436293
vt 0.939682 1.202026
vt 0.946772 1.381619
vn -0.979200 -0.200200 -0.034400
vn 0.256400 -0.389200 -0.884800
vn 0.974400 -0.208700 0.083500
vn -0.256400 -0.389200 0.884800
vn 0.000000 -1.000000 0.000000
vn -0.265000 0.963700 0.032500
vn -0.063200 0.997900 -0.016200
vn -0.096400 0.994000 -0.050900
vn 0.979200 -0.200200 -0.034400
vn 0.980000 -0.199200 0.000000
vn -0.974400 -0.208700 0.083500
vn -0.980000 -0.199200 0.000000
vn -0.308100 0.948000 -0.079800
vn -0.904700 0.424600 -0.034100
vn -0.252700 0.967400 0.016700
vn -0.966500 0.245000 0.076100
vn 0.308100 0.948000 -0.079800
vn 0.904700 0.424600 -0.034100
vn 0.268300 0.961600 0.057900
vn 0.908600 0.417700 0.002700
vn -0.101600 0.951400 0.290800
vn -0.287500 0.056700 0.956100
vn 0.252700 0.967400 0.016700
vn 0.966500 0.245000 0.076100
vn 0.147500 0.983800 -0.102100
vn 0.287500 0.056700 -0.956100
vn -0.268300 0.961600 0.057900
vn -0.908600 0.417700 0.002700
vn -0.287500 0.056700 -0.956100
vn 0.000000 0.000000 -1.000000
vn -0.147500 0.983800 -0.102100
vn 0.000000 0.953200 -0.302300
vn 0.287500 0.056700 0.956100
vn 0.000000 0.000000 1.000000
vn 0.101600 0.951400 0.290800
vn 0.000000 0.929400 0.369100
vn 0.096400 0.994000 -0.050900
vn 0.000000 0.999300 -0.038700
vn 0.063200 0.997900 -0.016200
vn 0.000000 0.999000 -0.045600
vn 0.265000 0.963700 0.032500
vn 0.000000 0.998900 0.046200
vn 0.256400 -0.389200 0.884800
vn 0.000000 -0.376600 0.926400
vn -0.256400 -0.389200 -0.884800
vn 0.000000 -0.376600 -0.926400
usemtl Material
s off
f 32/1/1 20/2/1 3/3/1 11/4/1
f 55/5/2 22/6/2 7/7/2 35/8/2
f 28/9/3 24/10/3 5/11/3 15/12/3
f 51/13/4 17/14/4 1/15/4 39/16/4
f 48/17/5 35/18/5 7/19/5 16/20/5
f 44/21/6 33/22/6 4/23/6 10/24/6
f 38/25/7 42/26/7 9/27/7 2/28/7
f 42/26/8 44/21/8 10/24/8 9/27/8
f 40/29/5 46/30/5 15/31/5 5/32/5
f 46/30/5 48/17/5 16/20/5 15/31/5
f 22/33/9 26/34/9 16/35/9 7/36/9
f 26/34/10 28/9/10 15/12/10 16/35/10
f 17/37/11 30/38/11 12/39/11 1/40/11
f 30/38/12 32/1/12 11/4/12 12/39/12
f 9/27/13 10/24/13 31/41/13 29/42/13
f 29/43/14 31/44/14 32/1/14 30/38/14
f 2/28/15 9/27/15 29/42/15 18/45/15
f 18/46/16 29/43/16 30/38/16 17/37/16
f 13/47/17 14/48/17 27/49/17 25/50/17
f 25/51/18 27/52/18 28/9/18 26/34/18
f 8/53/19 13/47/19 25/50/19 21/54/19
f 21/55/20 25/51/20 26/34/20 22/33/20
f 38/25/21 2/28/21 18/45/21 49/56/21
f 49/57/22 18/58/22 17/14/22 51/13/22
f 14/48/23 6/59/23 23/60/23 27/49/23
f 27/52/24 23/61/24 24/10/24 28/9/24
f 34/62/25 8/53/25 21/54/25 53/63/25
f 53/64/26 21/65/26 22/6/26 55/5/26
f 10/24/27 4/23/27 19/66/27 31/41/27
f 31/44/28 19/67/28 20/2/28 32/1/28
f 19/68/29 54/69/29 56/70/29 20/71/29
f 54/69/30 53/64/30 55/5/30 56/70/30
f 4/23/31 33/22/31 54/72/31 19/66/31
f 33/22/32 34/62/32 53/63/32 54/72/32
f 23/73/33 50/74/33 52/75/33 24/6/33
f 50/74/34 49/57/34 51/13/34 52/75/34
f 6/59/35 37/76/35 50/77/35 23/60/35
f 37/76/36 38/25/36 49/56/36 50/77/36
f 12/78/5 11/79/5 47/80/5 45/81/5
f 45/81/5 47/80/5 48/17/5 46/30/5
f 1/82/5 12/78/5 45/81/5 39/83/5
f 39/83/5 45/81/5 46/30/5 40/29/5
f 14/48/37 13/47/37 43/84/37 41/85/37
f 41/85/38 43/84/38 44/21/38 42/26/38
f 6/59/39 14/48/39 41/85/39 37/76/39
f 37/76/40 41/85/40 42/26/40 38/25/40
f 13/47/41 8/53/41 34/62/41 43/84/41
f 43/84/42 34/62/42 33/22/42 44/21/42
f 11/79/5 3/86/5 36/87/5 47/80/5
f 47/80/5 36/87/5 35/18/5 48/17/5
f 24/6/43 52/75/43 40/88/43 5/89/43
f 52/75/44 51/13/44 39/16/44 40/88/44
f 20/71/45 56/70/45 36/90/45 3/91/45
f 56/70/46 55/5/46 35/8/46 36/90/46
