# Blender v2.74 (sub 4) OBJ File: ''
# www.blender.org
o Plane
v -0.594368 -0.025786 0.594368
v 0.594368 -0.025786 0.594368
v -0.594368 -0.025786 -0.594368
v 0.594368 -0.025786 -0.594368
v -0.594368 0.213800 -0.110024
v -0.594368 0.213800 0.110024
v 0.594368 0.213800 0.110024
v 0.594368 0.213800 -0.110024
v -0.594368 0.074214 0.594368
v 0.594368 0.074214 0.594368
v -0.594368 0.074214 -0.594368
v 0.594368 0.074214 -0.594368
v -0.594368 0.395477 -0.037573
v -0.594368 0.395477 0.037573
v 0.594368 0.395477 0.037573
v 0.594368 0.395477 -0.037573
v 0.580392 -0.716775 -0.100000
v 0.580392 0.207742 -0.100000
v 0.580392 -0.716775 0.100000
v 0.580392 0.207742 0.100000
v 0.484193 -0.716775 -0.100000
v 0.484193 0.207742 -0.100000
v 0.484193 -0.716775 0.100000
v 0.484193 0.207742 0.100000
v -0.580392 -0.716775 0.100000
v -0.580392 0.207742 0.100000
v -0.580392 -0.716775 -0.100000
v -0.580392 0.207742 -0.100000
v -0.484193 -0.716775 0.100000
v -0.484193 0.207742 0.100000
v -0.484193 -0.716775 -0.100000
v -0.484193 0.207742 -0.100000
vt -2.037692 -0.642955
vt -2.037691 -1.795974
vt 0.498825 -1.795974
vt 0.498825 -0.642955
vt -2.037692 0.979602
vt -2.037692 -0.173418
vt 0.498825 -0.173417
vt 0.498825 0.979602
vt -0.828274 0.554469
vt 1.708243 0.554469
vt 1.708243 1.926136
vt -0.828275 1.926135
vt -0.828275 -0.977544
vt 1.708243 -0.977544
vt 1.708243 0.394122
vt -0.828274 0.394123
vt 0.533815 0.318514
vt 0.533815 0.838637
vt 0.104389 0.667386
vt 0.104389 0.489764
vt -2.037692 -2.009354
vt 0.498825 -2.009355
vt 0.498825 1.192981
vt -2.037692 1.192983
vt -0.160681 2.007526
vt 0.422098 0.829388
vt 0.864017 0.653155
vt 0.082564 2.007526
vt 1.100118 -0.826317
vt 0.863751 -0.826317
vt 0.422098 0.294133
vt -0.160680 -0.884004
vt 0.082565 -0.884004
vt 0.864017 0.470366
vt 1.100117 1.983467
vt 0.863749 1.983467
vt -0.630533 1.126091
vt -0.630534 0.699332
vt 1.342194 0.699332
vt 1.342194 1.126091
vt -0.630534 0.494062
vt 1.342194 0.494062
vt -0.630534 0.067303
vt 1.342194 0.067302
vt -0.630534 -0.137967
vt 1.342194 -0.137967
vt -0.468279 1.205461
vt -0.468279 0.778702
vt 1.504448 0.778702
vt 1.504449 1.205460
vt -0.468279 0.573432
vt 1.504448 0.573432
vt -0.468279 0.146673
vt 1.504448 0.146673
vt -0.468279 -0.058597
vt 1.504448 -0.058597
vn 0.000000 -0.896300 0.443400
vn 0.000000 -0.896300 -0.443400
vn 0.000000 -1.000000 0.000000
vn 0.000000 0.866200 -0.499800
vn 0.000000 0.866200 0.499800
vn 0.000000 1.000000 0.000000
vn -1.000000 -0.000000 0.000000
vn 0.000000 0.000000 -1.000000
vn 0.000000 0.000000 1.000000
vn 1.000000 -0.000000 0.000000
s off
f 5/1/1 3/2/1 4/3/1 8/4/1
f 1/5/2 6/6/2 7/7/2 2/8/2
f 6/6/3 5/1/3 8/4/3 7/7/3
f 13/9/4 16/10/4 12/11/4 11/12/4
f 9/13/5 10/14/5 15/15/5 14/16/5
f 14/16/6 15/15/6 16/10/6 13/9/6
f 5/17/7 6/18/7 14/19/7 13/20/7
f 4/3/8 3/2/8 11/21/8 12/22/8
f 1/5/9 2/8/9 10/23/9 9/24/9
f 2/25/10 7/26/10 15/27/10 10/28/10
f 3/29/7 5/17/7 13/20/7 11/30/7
f 8/31/10 4/32/10 12/33/10 16/34/10
f 6/18/7 1/35/7 9/36/7 14/19/7
f 7/26/10 8/31/10 16/34/10 15/27/10
f 18/37/10 20/38/10 19/39/10 17/40/10
f 20/38/9 24/41/9 23/42/9 19/39/9
f 24/41/7 22/43/7 21/44/7 23/42/7
f 22/43/8 18/45/8 17/46/8 21/44/8
f 26/47/7 28/48/7 27/49/7 25/50/7
f 28/48/8 32/51/8 31/52/8 27/49/8
f 32/51/10 30/53/10 29/54/10 31/52/10
f 30/53/9 26/55/9 25/56/9 29/54/9
